# Blender v2.93.1 OBJ File: ''
# www.blender.org
mtllib chair.mtl
o Cube
v 0.892625 1.875826 -0.731625
v 1.000000 1.660761 -0.877998
v 0.894142 1.875826 0.756048
v 1.000000 1.660761 0.877998
v -0.741143 1.875826 -0.736051
v -0.741143 1.660761 -0.736051
v -0.741143 1.875826 0.736051
v -0.741143 1.660761 0.736051
v -0.131141 1.660761 -0.877998
v -0.131141 1.875826 0.877998
v -0.131141 1.660761 0.877998
v -0.131141 1.875826 -0.877998
v -0.741143 1.660761 -0.372974
v 0.892625 1.875826 -0.591275
v -0.741143 1.875826 -0.372974
v 1.000000 1.660761 -0.444902
v -0.131141 1.660761 -0.444902
v -0.131141 1.875826 -0.444902
v -0.741143 1.660761 0.397132
v 0.894142 1.875826 0.595669
v -0.131141 1.660761 0.473719
v -0.131141 1.875826 0.473719
v -0.741143 1.875826 0.397132
v 1.000000 1.660761 0.473719
v -0.387700 1.660761 -0.818297
v -0.387700 1.875826 0.818297
v -0.387700 1.660761 0.818297
v -0.387700 1.875826 -0.818297
v -0.387700 1.660761 -0.414650
v -0.387700 1.875826 -0.414650
v -0.387700 1.660761 0.441507
v -0.387700 1.875826 0.441507
v 0.682293 1.660761 0.877998
v 0.789668 1.875826 -0.731625
v 0.682293 1.660761 -0.877998
v 0.788151 1.875826 0.756048
v 0.789668 1.875826 -0.591275
v 0.682293 1.660761 -0.444902
v 0.788151 1.875826 0.595669
v 0.682293 1.660761 0.473719
v 0.738672 0.057398 0.766613
v 0.943621 0.057398 0.766613
v 0.950273 0.057398 -0.554502
v 0.950273 0.057398 -0.768398
v -0.380001 0.057398 0.762076
v -0.138840 0.057398 0.801487
v -0.138840 0.057398 0.534611
v -0.231354 0.057398 -0.741332
v -0.231354 0.057398 -0.555853
v 0.943621 0.057398 0.585104
v -0.449992 0.057398 -0.715764
v -0.449992 0.057398 -0.542897
v -0.380001 0.057398 0.513347
v 0.732020 0.057398 -0.768398
v 0.732020 0.057398 -0.554502
v 0.738672 0.057398 0.585104
v -0.231354 1.549189 -0.741332
v -0.449992 1.549189 -0.715764
v -0.231354 1.549189 -0.555853
v -0.449992 1.549189 -0.542897
v -0.138840 1.553026 0.534611
v -0.380001 1.553026 0.513347
v -0.380001 1.553026 0.762076
v -0.138840 1.553026 0.801487
v 0.943621 1.559025 0.766613
v 0.943621 1.559025 0.585104
v 0.738672 1.559025 0.585104
v 0.738672 1.559025 0.766613
v 0.732020 1.581374 -0.554502
v 0.950273 1.581374 -0.554502
v 0.950273 1.581374 -0.768398
v 0.732020 1.581374 -0.768398
v 1.000000 1.875826 0.473719
v 1.000000 1.875826 0.877998
v 0.682293 1.875826 0.473719
v 0.682293 1.875826 0.877998
v 0.682293 1.875826 -0.877998
v 1.000000 1.875826 -0.877998
v 1.000000 1.875826 -0.444902
v 0.682293 1.875826 -0.444902
v 0.894142 2.599410 0.595669
v 0.894142 2.599410 0.756048
v 0.788151 2.599410 0.595669
v 0.788151 2.599410 0.756048
v 0.789668 2.599410 -0.731625
v 0.892625 2.599410 -0.731625
v 0.892625 2.599410 -0.591275
v 0.789668 2.599410 -0.591275
v 0.741552 2.543026 0.831834
v 0.741552 4.430580 0.831834
v 0.741552 2.543026 -0.831834
v 0.741552 4.430580 -0.831834
v 0.958031 2.543026 0.831834
v 0.958031 4.430580 0.831834
v 0.958031 2.543026 -0.831834
v 0.958031 4.430580 -0.831834
v 0.741552 2.543026 0.000000
v 0.741552 4.543026 0.000000
v 0.958031 2.543026 0.000000
v 0.958031 4.543026 0.000000
vt 0.967154 0.217465
vt 0.979192 0.217379
vt 0.985187 0.907065
vt 0.973149 0.907150
vt 0.998658 0.888240
vt 0.985867 0.888223
vt 0.986871 0.160197
vt 0.999660 0.160215
vt 0.159865 0.537523
vt 0.159865 0.525410
vt 0.853841 0.523981
vt 0.853841 0.536094
vt 0.171083 0.572453
vt 0.171083 0.559764
vt 0.897996 0.559729
vt 0.897996 0.572417
vt 0.899572 0.465289
vt 0.907966 0.465289
vt 0.907966 0.817490
vt 0.899571 0.817490
vt 0.896156 0.010499
vt 0.903502 0.010499
vt 0.903502 0.362697
vt 0.896155 0.362697
vt 0.847184 0.505334
vt 0.847184 0.516933
vt 0.836911 0.516933
vt 0.836911 0.505334
vt 0.118443 0.370840
vt 0.131064 0.371953
vt 0.131064 0.385921
vt 0.118443 0.383858
vt 0.131663 0.411805
vt 0.118443 0.413351
vt 0.118443 0.402136
vt 0.131663 0.401353
vt 0.853203 0.499121
vt 0.853203 0.487018
vt 0.865064 0.487018
vt 0.865064 0.499121
vt 0.738793 0.447137
vt 0.738793 0.457964
vt 0.118443 0.460729
vt 0.118443 0.449901
vt 0.783669 0.544157
vt 0.783669 0.555768
vt 0.118443 0.557616
vt 0.118443 0.546005
vt 0.172358 0.518779
vt 0.172358 0.507180
vt 0.738793 0.422340
vt 0.738793 0.433167
vt 0.118443 0.435932
vt 0.118443 0.425104
vt 0.743432 0.350652
vt 0.743432 0.361561
vt 0.118443 0.364113
vt 0.118443 0.353205
vt 0.859086 0.371954
vt 0.859086 0.385923
vt 0.159829 0.500551
vt 0.159829 0.488448
vt 0.730536 0.398363
vt 0.730536 0.408815
vt 0.804318 0.323829
vt 0.804318 0.335800
vt 0.118443 0.337420
vt 0.118443 0.325449
vt 0.804318 0.298908
vt 0.804318 0.310880
vt 0.118443 0.312500
vt 0.118443 0.300528
vt 0.961809 0.848128
vt 0.949804 0.848027
vt 0.954468 0.160197
vt 0.966473 0.160298
vt 0.170885 0.482068
vt 0.170885 0.469049
vt 0.898891 0.469049
vt 0.898891 0.482067
vt 0.966473 0.905402
vt 0.952312 0.905382
vt 0.793386 0.390608
vt 0.793386 0.415015
vt 0.804738 0.342615
vt 0.804738 0.368086
vt 0.970784 0.160458
vt 0.985187 0.160197
vt 0.118443 0.485011
vt 0.118443 0.465289
vt 0.911529 0.368767
vt 0.911529 0.389928
vt 0.118443 0.573195
vt 0.118475 0.559643
vt 0.999660 0.940827
vt 0.985872 0.940749
vt 0.795331 0.415695
vt 0.795331 0.439812
vt 0.118443 0.521970
vt 0.118443 0.503989
vt 0.837639 0.540963
vt 0.837639 0.558962
vt 0.795331 0.440492
vt 0.795331 0.464609
vt 0.845731 0.292774
vt 0.845731 0.317014
vt 0.845731 0.317694
vt 0.845731 0.341935
vt 0.118443 0.503309
vt 0.118443 0.485691
vt 0.118443 0.540283
vt 0.118443 0.522650
vt 0.911529 0.362697
vt 0.911529 0.368086
vt 0.904182 0.368086
vt 0.904182 0.362697
vt 0.907966 0.823038
vt 0.899571 0.823038
vt 0.904183 0.010499
vt 0.911529 0.010499
vt 0.917041 0.817490
vt 0.908647 0.817490
vt 0.908646 0.465289
vt 0.917041 0.465289
vt 0.852252 0.341935
vt 0.846412 0.341925
vt 0.846412 0.007341
vt 0.852252 0.007351
vt 0.865208 0.337115
vt 0.859453 0.337103
vt 0.859453 0.007341
vt 0.865208 0.007353
vt 0.871644 0.337115
vt 0.865889 0.337103
vt 0.865889 0.007341
vt 0.871644 0.007353
vt 0.858772 0.341935
vt 0.852932 0.341925
vt 0.852932 0.007341
vt 0.858772 0.007351
vt 0.191078 0.269247
vt 0.209577 0.266924
vt 0.209577 0.284664
vt 0.191078 0.288969
vt 0.321027 0.019334
vt 0.216343 0.019334
vt 0.216343 0.000340
vt 0.321027 0.000340
vt 0.314261 0.226616
vt 0.209577 0.226616
vt 0.209577 0.207611
vt 0.314261 0.207611
vt 0.321027 0.114169
vt 0.216343 0.114169
vt 0.216343 0.093008
vt 0.321027 0.093008
vt 0.135147 0.093572
vt 0.140005 0.198729
vt 0.123301 0.199501
vt 0.118443 0.094344
vt 0.190345 0.093045
vt 0.196847 0.195937
vt 0.182775 0.196754
vt 0.177094 0.094556
vt 0.321027 0.075699
vt 0.216343 0.075699
vt 0.216343 0.033122
vt 0.321027 0.033122
vt 0.135072 0.270933
vt 0.177649 0.270933
vt 0.177649 0.292094
vt 0.135072 0.292094
vt 0.135072 0.200182
vt 0.177649 0.200182
vt 0.177649 0.222851
vt 0.135072 0.222851
vt 0.321027 0.184921
vt 0.216343 0.184921
vt 0.216343 0.162252
vt 0.321027 0.162252
vt 0.314261 0.266924
vt 0.191078 0.203306
vt 0.191078 0.224434
vt 0.314261 0.284664
vt 0.192280 0.072192
vt 0.178774 0.072621
vt 0.182262 0.024415
vt 0.195711 0.027108
vt 0.136128 0.070571
vt 0.119261 0.069551
vt 0.122211 0.020782
vt 0.139078 0.021803
vt 0.211030 0.071737
vt 0.214274 0.030911
vt 0.209087 0.091006
vt 0.197255 0.007125
vt 0.215663 0.012936
vt 0.215663 0.194770
vt 0.118443 0.222851
vt 0.118443 0.270933
vt 0.321027 0.092328
vt 0.216343 0.092328
vt 0.140376 0.000340
vt 0.183560 0.002952
vt 0.123983 0.277316
vt 0.123983 0.285711
vt 0.118443 0.292094
vt 0.129531 0.277316
vt 0.129531 0.285711
vt 0.129452 0.207843
vt 0.124063 0.207843
vt 0.118443 0.200182
vt 0.124063 0.215189
vt 0.129452 0.215189
vt 0.973856 0.951371
vt 0.000340 0.951370
vt 0.185439 0.907830
vt 0.973856 0.907831
vt 0.000340 0.907090
vt 0.000467 0.123444
vt 0.013265 0.126000
vt 0.014018 0.907071
vt 0.059173 0.907150
vt 0.059230 0.019367
vt 0.107722 0.135220
vt 0.103756 0.906859
vt 0.117762 0.133645
vt 0.117762 0.906846
vt 0.985187 0.951371
vt 0.985187 0.994910
vt 0.973856 0.994910
vt 0.060618 0.000340
vt 0.985187 0.907831
vt 0.185442 0.994910
vn -0.1162 0.0000 -0.9932
vn -0.1613 0.0000 0.9869
vn 0.0000 0.0000 1.0000
vn 0.0878 0.0000 -0.9961
vn 1.0000 0.0000 0.0000
vn -1.0000 0.0000 0.0000
vn 0.0000 -1.0000 0.0000
vn 0.0000 0.0000 -1.0000
vn 0.0592 0.0000 0.9982
vn 0.0599 -0.7499 0.6589
vn -0.8731 0.4875 0.0000
vn 0.7440 -0.6682 0.0000
vn -0.1296 -0.6796 -0.7220
vn -0.9975 -0.0713 0.0000
vn 0.9975 -0.0713 0.0000
vn 0.0911 -0.5223 -0.8479
vn -0.1672 -0.5171 0.8394
vn -0.8747 -0.4847 0.0000
vn 0.0000 -0.7384 0.6744
vn 0.0000 -0.7384 -0.6744
vn 0.8747 -0.4847 0.0000
vn 0.8475 -0.5308 0.0000
vn -0.8475 -0.5308 0.0000
vn 0.0000 -0.8099 -0.5866
vn 0.0000 -0.8099 0.5866
vn 0.0000 1.0000 0.0000
vn -0.2266 0.0000 0.9740
vn -0.2266 0.0000 -0.9740
vn 0.0000 0.9910 0.1340
vn 0.0000 0.9910 -0.1340
usemtl Material
s off
f 58/1/1 57/2/1 48/3/1 51/4/1
f 64/5/2 63/6/2 45/7/2 46/8/2
f 70/9/3 69/10/3 55/11/3 43/12/3
f 62/13/4 61/14/4 47/15/4 53/16/4
f 3/17/5 20/18/5 81/19/5 82/20/5
f 34/21/6 37/22/6 88/23/6 85/24/6
f 56/25/7 50/26/7 42/27/7 41/28/7
f 53/29/7 47/30/7 46/31/7 45/32/7
f 51/33/7 48/34/7 49/35/7 52/36/7
f 54/37/7 44/38/7 43/39/7 55/40/7
f 66/41/5 65/42/5 42/43/5 50/44/5
f 67/45/8 66/46/8 50/47/8 56/48/8
f 65/49/3 68/50/3 41/28/3 42/27/3
f 68/51/6 67/52/6 56/53/6 41/54/6
f 57/55/5 59/56/5 49/57/5 48/58/5
f 61/59/5 64/60/5 46/31/5 47/30/5
f 72/61/8 71/62/8 44/38/8 54/37/8
f 60/63/6 58/64/6 51/33/6 52/36/6
f 69/65/6 72/66/6 54/67/6 55/68/6
f 71/69/5 70/70/5 43/71/5 44/72/5
f 59/73/9 60/74/9 52/75/9 49/76/9
f 63/77/6 62/78/6 53/79/6 45/80/6
f 17/81/10 29/82/10 60/74/10 59/73/10
f 29/83/11 25/84/11 58/64/11 60/63/11
f 9/85/12 17/86/12 59/56/12 57/55/12
f 25/87/13 9/88/13 57/2/13 58/1/13
f 27/89/14 31/90/14 62/78/14 63/77/14
f 21/91/15 11/92/15 64/60/15 61/59/15
f 31/93/16 21/94/16 61/14/16 62/13/16
f 11/95/17 27/96/17 63/6/17 64/5/17
f 33/97/18 40/98/18 67/52/18 68/51/18
f 4/99/19 33/100/19 68/50/19 65/49/19
f 40/101/20 24/102/20 66/46/20 67/45/20
f 24/103/21 4/104/21 65/42/21 66/41/21
f 2/105/22 16/106/22 70/70/22 71/69/22
f 38/107/23 35/108/23 72/66/23 69/65/23
f 35/109/24 2/110/24 71/62/24 72/61/24
f 16/111/25 38/112/25 69/10/25 70/9/25
f 86/113/26 85/114/26 88/115/26 87/116/26
f 81/19/26 83/117/26 84/118/26 82/20/26
f 14/119/5 1/120/5 86/113/5 87/116/5
f 39/121/6 36/122/6 84/123/6 83/124/6
f 20/125/8 39/126/8 83/127/8 81/128/8
f 37/129/3 14/130/3 87/131/3 88/132/3
f 1/133/8 34/134/8 85/135/8 86/136/8
f 36/137/3 3/138/3 82/139/3 84/140/3
usemtl Material.001
f 32/141/26 23/142/26 7/143/26 26/144/26
f 27/145/27 26/146/27 7/147/27 8/148/27
f 13/149/6 15/150/6 5/151/6 6/152/6
f 24/153/5 73/154/5 74/155/5 4/156/5
f 35/157/8 77/158/8 78/159/8 2/160/8
f 25/161/28 28/162/28 12/163/28 9/164/28
f 33/165/3 76/166/3 10/167/3 11/168/3
f 75/169/26 22/170/26 10/171/26 76/172/26
f 77/173/26 12/174/26 18/175/26 80/176/26
f 2/177/5 78/178/5 79/179/5 16/180/5
f 19/181/6 23/142/6 15/150/6 13/149/6
f 28/182/26 5/151/26 15/150/26 30/183/26
f 8/184/6 7/143/6 23/142/6 19/181/6
f 80/176/26 18/175/26 22/170/26 75/169/26
f 29/185/7 17/186/7 21/187/7 31/188/7
f 16/180/5 79/179/5 73/154/5 24/153/5
f 38/189/7 16/190/7 24/191/7 40/192/7
f 30/183/26 15/150/26 23/142/26 32/141/26
f 18/175/26 30/183/26 32/141/26 22/170/26
f 13/193/7 29/185/7 31/188/7 19/194/7
f 12/174/26 28/182/26 30/183/26 18/175/26
f 6/195/7 25/161/7 29/185/7 13/193/7
f 19/194/7 31/188/7 27/196/7 8/197/7
f 6/195/28 5/198/28 28/162/28 25/161/28
f 11/168/27 10/167/27 26/146/27 27/145/27
f 22/170/26 32/141/26 26/144/26 10/171/26
f 17/186/7 38/189/7 40/192/7 21/187/7
f 79/199/26 80/176/26 75/169/26 73/200/26
f 9/164/7 35/157/7 38/189/7 17/186/7
f 4/201/3 74/202/3 76/166/3 33/165/3
f 9/164/8 12/163/8 77/158/8 35/157/8
f 21/187/7 40/192/7 33/203/7 11/204/7
f 20/205/26 3/206/26 74/207/26 73/200/26
f 39/208/26 20/205/26 73/200/26 75/169/26
f 3/206/26 36/209/26 76/172/26 74/207/26
f 36/209/26 39/208/26 75/169/26 76/172/26
f 34/210/26 1/211/26 78/212/26 77/173/26
f 1/211/26 14/213/26 79/199/26 78/212/26
f 14/213/26 37/214/26 80/176/26 79/199/26
f 37/214/26 34/210/26 77/173/26 80/176/26
f 97/215/6 98/216/6 92/217/6 91/218/6
f 91/219/8 92/220/8 96/221/8 95/222/8
f 99/223/5 100/224/5 94/225/5 93/226/5
f 93/226/3 94/225/3 90/227/3 89/228/3
f 97/215/7 99/229/7 93/230/7 89/231/7
f 100/224/29 98/232/29 90/227/29 94/225/29
f 96/221/30 92/220/30 98/232/30 100/224/30
f 91/218/7 95/233/7 99/229/7 97/215/7
f 95/222/5 96/221/5 100/224/5 99/223/5
f 89/231/6 90/234/6 98/216/6 97/215/6
