# Blender v2.93.1 OBJ File: ''
# www.blender.org
mtllib Locker.mtl
o Cube.002
v -0.782507 -0.015774 0.712543
v -0.782507 3.316453 0.712543
v -0.782507 -0.015774 -0.852471
v -0.782507 3.756938 -0.852471
v 0.782507 -0.015774 0.712543
v 0.782507 3.316453 0.712543
v 0.782507 -0.015774 -0.852471
v 0.782507 3.756938 -0.852471
vt 0.333280 0.999840
vt 0.039053 0.999840
vt 0.000160 0.666720
vt 0.333280 0.666720
vt 0.051184 0.692814
vt 0.312469 0.692814
vt 0.312469 0.954099
vt 0.051184 0.954099
vt 0.000160 0.333280
vt 0.000160 0.000160
vt 0.333280 0.039053
vt 0.333280 0.333280
vt 0.897973 0.067731
vt 0.897678 0.891043
vt 0.444135 0.890880
vt 0.444430 0.067568
vt 0.000160 0.666401
vt 0.333280 0.666401
vt 0.005214 0.023616
vt 0.338334 0.023616
vt 0.338335 0.358999
vt 0.005214 0.358999
vn -1.0000 0.0000 0.0000
vn 0.0000 0.0000 -1.0000
vn 1.0000 0.0000 0.0000
vn 0.0000 0.0000 1.0000
vn 0.0000 -1.0000 0.0000
vn 0.0000 0.9626 0.2709
usemtl Material.001
s off
f 1/1/1 2/2/1 4/3/1 3/4/1
f 3/5/2 4/6/2 8/7/2 7/8/2
f 7/9/3 8/10/3 6/11/3 5/12/3
f 5/13/4 6/14/4 2/15/4 1/16/4
f 3/17/5 7/9/5 5/12/5 1/18/5
f 8/19/6 4/20/6 2/21/6 6/22/6
